{"accessors":[{"bufferView":0,"byteOffset":0,"componentType":5126,"count":228,"max":[0.027571421921584835,0.01,0.027563430201120783],"min":[-0.027571421921584835,0.0,-0.027574086],"type":"VEC3"},{"bufferView":0,"byteOffset":2736,"componentType":5126,"count":113,"max":[0.027571421921584835,0.0,0.027563430201120783],"min":[-0.027571421921584835,0.0,-0.027574086],"type":"VEC3"},{"bufferView":0,"byteOffset":4092,"componentType":5126,"count":113,"max":[0.027571421921584835,0.01,0.027563430201120783],"min":[-0.027571421921584835,0.01,-0.027574086],"type":"VEC3"},{"bufferView":1,"byteOffset":0,"componentType":5126,"count":228,"type":"VEC3"},{"bufferView":1,"byteOffset":2736,"componentType":5126,"count":113,"type":"VEC3"},{"bufferView":1,"byteOffset":4092,"componentType":5126,"count":113,"type":"VEC3"},{"bufferView":2,"byteOffset":0,"componentType":5123,"count":678,"type":"SCALAR"},{"bufferView":2,"byteOffset":1356,"componentType":5123,"count":333,"type":"SCALAR"},{"bufferView":2,"byteOffset":2024,"componentType":5123,"count":333,"type":"SCALAR"}],"asset":{"generator":"Open CASCADE Technology 7.7 [dev.opencascade.org]","version":"2.0"},"bufferViews":[{"buffer":0,"byteLength":5448,"byteOffset":0,"byteStride":12,"target":34962},{"buffer":0,"byteLength":5448,"byteOffset":5448,"byteStride":12,"target":34962},{"buffer":0,"byteLength":2692,"byteOffset":10896,"target":34963}],"buffers":[{"byteLength":13588,"uri":"111-Body.bin"}],"materials":[{"name":"mat_0","pbrMetallicRoughness":{"baseColorFactor":[0.6038273572921753,0.6038273572921753,0.7912984490394592,1.0]},"doubleSided":true}],"meshes":[{"name":"Body","primitives":[{"attributes":{"NORMAL":3,"POSITION":0},"indices":6,"material":0,"mode":4},{"attributes":{"NORMAL":4,"POSITION":1},"indices":7,"material":0,"mode":4},{"attributes":{"NORMAL":5,"POSITION":2},"indices":8,"material":0,"mode":4}]}],"nodes":[{"mesh":0,"name":"Body"}],"scene":0,"scenes":[{"nodes":[0]}]}